<svg width="186" height="194" viewBox="0 0 186 194" fill="none" xmlns="http://www.w3.org/2000/svg">
<path d="M65 88C65 96.6634 63.595 111.595 70.5 118.5C74.6204 122.62 77.8484 126.827 82.5 130.444C90.2713 136.489 102.802 136 112 136C122.102 136 128.378 134.123 136.5 128.5C143.169 123.883 149 114.57 149 106C149 100.832 150.363 93.522 148.944 88.5556C148.226 86.0395 143.994 86 142 86C138.354 86 138 89.5013 138 92.5C138 97.1807 139.38 104.243 134.556 107C130.204 109.487 126.724 114.153 122 116.778C117.59 119.228 113.377 125 108 125C103.128 125 94.1553 122.755 91.7778 118C89.8242 114.093 86.2374 108.273 86 104C85.6696 98.052 84.9265 94.4085 82.2222 89C79.9891 84.5337 74.067 79.4886 69.7778 83.7778C67.4288 86.1268 66 96.322 66 93C66 87.3243 66.0034 80.7774 73 80C76.061 79.6599 75.4358 78.1433 73 78C71.065 77.8862 68 78.9801 68 77.5C68 74.6922 67.6813 64 63.5 64C57.7996 64 53.3388 63.7967 48.4444 61C45.3658 59.2408 43.4916 52.1151 45.5 48.5C48.6416 42.8451 52.625 41 59.5 41C65.6138 41 66 48.0659 66 52.5C66 54.5922 64.1389 56.6383 64 59C63.8015 62.3751 63.3936 62.7468 62 59.6111C61.1056 57.5988 55 48.9692 55 50.5C55 51.7115 52.8211 55 56 55C57.475 55 59.8188 50.1261 58.5 52.5C56.0931 56.8323 61.2105 59.424 63 62.5556C64.9024 65.8848 63.7506 72.8005 66.5 75C69.4539 77.3631 72.4423 79.5539 75.5 82C78.3289 84.2631 77.6127 89.1028 79.5 92.5C82.0134 97.0241 84 97.7603 84 103.5C84 107.332 85.6552 111.569 88 114.5C90.7861 117.983 96.3222 118.153 99 121.5C104.859 128.824 117.819 121.115 122.222 116.222C124.982 113.156 131.476 110.452 132 106C132.322 103.26 134.108 94.8647 135.778 92.7778C136.739 91.576 137.277 88.1273 138 86.5C138.959 84.3431 142.446 84.3968 143.778 82C146.978 76.2402 148 69.7441 148 63C148 60.5 147 61.8792 147 53C147 50.2924 146 48.1124 146 45.5C146 43.9101 143.184 38.8655 143 42C142.86 44.3782 145.829 46.5639 146 44C146.039 43.4162 146 48.1716 146 49.5C146 53.7163 150.962 57.0679 153.5 52.5C155.918 48.1479 154 38.3268 154 33.5C154 26.5649 151.765 23 144.5 23C139.38 23 131 23.1922 131 30.5C131 35.4055 132 39.9888 132 44.5C132 49.9182 132.358 55 138.5 55C140.864 55 142.455 55.3643 144.222 56.7778C146.548 58.6381 147.229 55.5602 149.5 55.0556C152.412 54.4085 153 48.0762 153 44C153 39.6242 152.966 39.5168 157 37.5C161.527 35.2366 161 37.0109 161 41C161 44.6223 160.1 44.8997 161.056 41.5556C161.877 38.6795 165.22 45.6685 163.778 38.7778C162.462 32.492 162.696 25.2648 162 19C161.264 12.3745 147.115 3 141 3C131.714 3 122.443 2 113.111 2C106.866 2 103.566 4.7909 98 6.22222C86.3036 9.22986 74.0607 9 62.0556 9C54.4043 9 47.0681 7.69316 40.7778 12.2222C22.6818 25.2513 19.3947 47.8035 13 67.4444C10.8655 74.0003 8.42445 80.4597 7.22222 87.2222C6.85392 89.2939 8.55877 103.601 4.5 100.444C4.20697 100.217 2.51998 97.726 2.22222 98.2222C1.65367 99.1698 4.1941 102.823 4.44444 103.333C7.79069 110.15 10.7256 117.143 14.4444 123.778C23.366 139.694 34.2513 154.658 45.8333 168.722C52.7344 177.102 61.405 189.47 72.9444 191.778C83.3357 193.856 96.8043 188.212 106.778 186C119.12 183.263 132.255 181.672 144 176.778C151.603 173.61 158.521 168.839 165.056 163.889C166.31 162.939 179 152.741 179 154.389C179 161.285 180.007 140.63 180.778 133.778C181.327 128.895 182 124.03 182 119.111C182 116.247 181.313 112.219 182.556 109.556C185.428 103.4 183.11 96.9271 183 90.2222C182.9 84.1025 182 78.1703 182 72C182 69.1429 183.399 63.475 182.778 62C180.114 55.6739 177.253 49.8228 175.222 43.2222C173.364 37.1836 170.155 33.5714 167.222 28C165.834 25.3617 164 23.6484 164 20.5C164 18.4309 160.718 20 161 20" stroke="black" stroke-width="3" stroke-linecap="round"/>
</svg>
